<svg style="" version="1.1" id="Warstwa_1" xmlns="http://www.w3.org/2000/svg" x="0" y="0" viewBox="0 0 445 320" xml:space="preserve"><style>.__prefix-ebbcdst0,.__prefix-ebbcdst1,.__prefix-ebbcdst2,.__prefix-ebbcdst3{fill:none;stroke:#949494;stroke-width:2;stroke-linecap:round;stroke-linejoin:round}.__prefix-ebbcdst1,.__prefix-ebbcdst2,.__prefix-ebbcdst3{stroke:#646464}.__prefix-ebbcdst2,.__prefix-ebbcdst3{stroke:#0082fa}.__prefix-ebbcdst3{stroke:#0fd2ff}.__prefix-ebbcdst4{stroke:#c8c8c8}.__prefix-ebbcdst4,.__prefix-ebbcdst5,.__prefix-ebbcdst6,.__prefix-ebbcdst7{fill:none;stroke-width:2;stroke-linecap:round;stroke-linejoin:round}.__prefix-ebbcdst5{stroke-dasharray:6;stroke:#c8c8c8}.__prefix-ebbcdst6,.__prefix-ebbcdst7{stroke:#0fd0ff}.__prefix-ebbcdst7{stroke:#0080f8}</style><g id="grafika1"><path class="__prefix-ebbcdst0 " d="M173.8 204.5c-3.6-1.8-5.8-5.7-5.4-9.8l9.9-91.6c.6-5.3 5.4-9.2 10.7-8.6l61.8 6.7c3.9.4 7.1 3.1 8.3 6.9"></path><path class="__prefix-ebbcdst0 " d="M168.7 198c-3.7-1.8-5.9-5.7-5.5-9.9l9.9-91.6c.6-5.3 5.4-9.2 10.7-8.6l61.8 6.7c3.9.4 7.1 3.1 8.3 6.9"></path><path class="__prefix-ebbcdst1 " d="M272.2 164l10 12.5M271 175.3l12.4-10.1M81.6 282.1l6.7 8.3M80.8 289.6l8.3-6.7M298.2 129.2l6.7 8.3M297.4 136.7l8.3-6.7M255.7 202l-.9 8.4c-.6 5.1-5.2 8.9-10.3 8.3l-57.4-6.2M255.7 202l7.9-72.8"></path><path class="__prefix-ebbcdst0 " d="M263.6 129.2l1.2-11c.5-5.1-3.2-9.8-8.3-10.3l-31.2-3.4"></path><path class="__prefix-ebbcdst2 " d="M177.2 169.4l-3.5 32.3c-.6 5.1 3.2 9.8 8.3 10.3l5 .5"></path><path class="__prefix-ebbcdst3 " d="M182 124.7l19.5 2.1c5.3.5 10-3.4 10.5-8.7l1.6-14.9"></path><path class="__prefix-ebbcdst3 " d="M225.2 104.4l-11.6-1.2-31.6 21.5-4.8 44.7"></path><path class="__prefix-ebbcdst1 " d="M208.3 161.2l-11.5 10.6-6.1-8.4M206.2 179.8l-11.4 10.6-6.2-8.4M210.3 142.6l-11.5 10.6-6.1-8.4"></path><path class="__prefix-ebbcdst4 " d="M93.6 58.7l5.9 7.1M93 65.2l7.1-5.9M166.6 304.7l5.9 7.1M166 311.2l7.1-5.9M408.6 213.7l5.9 7.1M408 220.2l7.1-5.9M43 89.2l11.8 7.3M45.3 98.8L52.6 87M431 135.2l11.8 7.3M433.3 144.8l7.3-11.8"></path><path class="__prefix-ebbcdst5 " d="M152.6 169.4c-52.5-9.4-71.8 7.6-71.8 7.6M351.8 79c-41.7 13.8-61.2 36.5-61.2 36.5M338.8 266s-33.7-9.5-57.3-40"></path><path class="__prefix-ebbcdst1 " d="M397.5 234.2l14.4 1.8-3.4 28.4"></path><path class="__prefix-ebbcdst0 " d="M382.4 232.4l15.1 1.8"></path><path class="__prefix-ebbcdst6 " d="M362.9 259l3.4-28.5 16.1 1.9"></path><path class="__prefix-ebbcdst1 " d="M383.8 261.5l30.4 3.6c4.2.5 7.1 4.3 6.7 8.4l-2.9 24.2-12.3-1.5.7-6.1-39.1-4.7"></path><path class="__prefix-ebbcdst0 " d="M370.7 259.9l13.1 1.6"></path><path class="__prefix-ebbcdst7 " d="M367.4 285.6l-7.6-.9-.7 6-12.6-1.5 1.2-9.9"></path><path class="__prefix-ebbcdst1 " d="M358.4 267l14.2 1.7M394 295.9l3.7.4M367 292.6l20 2.4M375.9 298l21.3 2.5M366.5 296.9l4.6.5M366 301.1l30.7 3.7M358.5 295.9l-1.4 11.6 46.6 5.6 2-16.8"></path><path class="__prefix-ebbcdst7 " d="M359.1 290.7l-.6 5.2"></path><path class="__prefix-ebbcdst6 " d="M347.7 279.3l1.7-14.3c.5-4.2 4.3-7.1 8.5-6.6l12.9 1.5"></path><path class="__prefix-ebbcdst1 " d="M7.9 189l.3 2.2c.4 3.3 3.5 5.6 6.7 5.2l40.9-5.7 4.1-.6c3.3-.4 5.6-3.5 5.1-6.7l-2.9-20.8c-.4-3.3-3.5-5.6-6.8-5.1l-9.4 1.3"></path><path class="__prefix-ebbcdst7 " d="M6.2 176.4L7.9 189"></path><circle class="__prefix-ebbcdst1 " cx="35.2" cy="176.2" r="8.9"></circle><path transform="rotate(-7.904 51.878 166.113)" class="__prefix-ebbcdst1 " d="M47.1 163.4h9.6v5.4h-9.6z"></path><path class="__prefix-ebbcdst0 " d="M46.1 158.7l-2.8.4-.4-2.9c-.3-2.5-2.6-4.3-5.2-4h-.1l-6.7.9"></path><path class="__prefix-ebbcdst6 " d="M31 153.2l-4.5.6c-2.5.3-4.3 2.6-4 5.2l.4 2.9-12.4 1.7c-4 .6-5.7 2.6-5.1 6.8l.8 5.9"></path><path class="__prefix-ebbcdst1 " d="M413 48.5l3.5 22.9c.5 3.4-1.8 6.6-5.2 7.2L376.7 84c-3.4.5-6.6-1.8-7.2-5.2l-1.3-8.2"></path><path class="__prefix-ebbcdst0 " d="M400.7 41.1l4.8-.7c3.4-.5 6.6 1.8 7.2 5.2l.4 2.6"></path><path class="__prefix-ebbcdst2 " d="M368.3 70.5l-2.7-17.3c-.2-1.6.2-3.3 1.1-4.6"></path><path class="__prefix-ebbcdst3 " d="M388.2 41.7s-8.4-13.2-16.8-11.9c-7.4 1.1 3.6 13.9 16.8 11.9zM388.2 41.7s3.2-12.3 10-13.4c6.2-.9.7 11.7-10 13.4zM367.1 48c1-1.3 2.4-2.2 4-2.4l29.2-4.5M388.6 43l-6.8 9.3M388.5 42.6l5.8 4.3"></path><path class="__prefix-ebbcdst4 " d="M323.6 193.8c8.2-25.7 6.7-53.6-4.1-78.3M113.3 197.6c20.8 57.7 84.4 87.6 142.1 66.9 8.3-3 16.2-6.9 23.5-11.8M302.3 88c-39.8-46.7-109.8-52.2-156.5-12.5-20.6 17.5-34 41.9-37.9 68.7M328.3 222.9c10.9-19.2 16.7-40.9 16.6-62.9 0-7.9-.7-15.8-2.2-23.6M208.1 286.8c3.2.2 6.4.4 9.7.4 15.4 0 30.7-2.8 45.1-8.2M109.8 227.1c16.6 26.6 42.4 46.2 72.5 55"></path><path class="__prefix-ebbcdst4 " d="M229.5 33.4c-3.9-.4-7.8-.5-11.7-.5-51.6 0-98.2 31.2-117.7 79M308.1 70.6c-14.8-15-33-26-53.1-32.2"></path></g></svg>