<svg width="1822" height="338" viewBox="0 0 1822 338" fill="none" xmlns="http://www.w3.org/2000/svg">
<path fill-rule="evenodd" clip-rule="evenodd" d="M722.251 190.062L582.824 50.6346C571.316 39.1266 571.316 20.9092 582.824 9.40111L583.583 8.63104C595.092 -2.87701 613.319 -2.87701 624.816 8.63104L764.255 148.058C775.763 159.566 775.763 177.784 764.255 189.292L763.485 190.062C751.976 201.57 733.759 201.57 722.251 190.062Z" fill="#0FD2FF"/>
<path fill-rule="evenodd" clip-rule="evenodd" d="M861.336 329.147L721.909 189.72C710.401 178.212 710.401 159.994 721.909 148.486L722.679 147.716C734.187 136.208 752.404 136.208 763.912 147.716L903.34 287.154C914.848 298.651 914.848 316.869 903.34 328.377L902.57 329.147C891.062 340.655 872.844 340.655 861.336 329.147Z" fill="#C382FA"/>
<path fill-rule="evenodd" clip-rule="evenodd" d="M722.926 190.788L632.875 100.736C621.353 89.214 621.353 70.9748 632.875 59.4536L633.636 58.682C645.157 47.1609 663.406 47.1609 674.918 58.682L764.981 148.734C776.502 160.256 776.502 178.495 764.981 190.016L764.209 190.788C752.688 202.309 734.449 202.309 722.926 190.788Z" fill="#0082FA"/>
<path fill-rule="evenodd" clip-rule="evenodd" d="M807.243 275.303L721.979 190.096C710.377 178.504 710.377 160.15 721.979 148.556L722.756 147.781C734.358 136.186 752.722 136.186 764.325 147.781L848.812 232.21C860.415 243.804 860.415 262.167 848.812 273.752L848.036 274.527C836.637 286.12 818.07 286.12 807.243 275.303Z" fill="#8250FA"/>
<path fill-rule="evenodd" clip-rule="evenodd" d="M861.458 9.37873L583.571 287.078C572.048 298.602 572.048 316.843 583.571 328.367L584.343 329.128C595.866 340.662 614.108 340.662 625.631 329.128L903.328 51.4382C914.852 39.9154 914.852 21.6733 903.328 10.1494L902.557 9.37873C891.223 -2.14512 872.982 -2.14512 861.458 9.37873Z" fill="#FA0064"/>
<path fill-rule="evenodd" clip-rule="evenodd" d="M800.99 69.1531L621.09 249.496C609.582 261.032 609.582 279.295 621.09 290.83L621.85 291.603C633.359 303.129 651.576 303.129 663.085 291.603L842.996 111.259C854.504 99.7226 854.504 81.4611 842.996 69.9253L842.226 69.1531C830.718 58.3884 811.919 58.3884 800.99 69.1531Z" fill="#BE0064"/>
<path d="M1159.01 234.586C1159.01 240.526 1156.84 245.647 1152.5 249.948C1148.38 254.045 1143.32 256.093 1137.33 256.093H1050.65C1044.66 256.093 1039.5 254.045 1035.17 249.948C1031.04 245.647 1028.98 240.526 1028.98 234.586V127.048C1028.98 121.108 1031.04 116.09 1035.17 111.993C1039.5 107.692 1044.66 105.541 1050.65 105.541H1137.33C1143.32 105.541 1148.38 107.692 1152.5 111.993C1156.84 116.09 1159.01 121.108 1159.01 127.048V148.556H1134.24V127.048H1053.75V234.586H1134.24V213.078H1159.01V234.586Z" fill="url(#paint0_linear_101_66)"/>
<path d="M1313.93 256.093H1205.58V105.541H1230.34V234.586H1289.16V213.078H1313.93V256.093Z" fill="url(#paint1_linear_101_66)"/>
<path d="M1473.43 234.586C1473.43 240.526 1471.26 245.647 1466.93 249.948C1462.8 254.045 1457.74 256.093 1451.76 256.093H1365.07C1359.09 256.093 1353.93 254.045 1349.59 249.948C1345.47 245.647 1343.4 240.526 1343.4 234.586V127.048C1343.4 121.108 1345.47 116.09 1349.59 111.993C1353.93 107.692 1359.09 105.541 1365.07 105.541H1451.76C1457.74 105.541 1462.8 107.692 1466.93 111.993C1471.26 116.09 1473.43 121.108 1473.43 127.048V234.586ZM1448.66 234.586V127.048H1368.17V234.586H1448.66Z" fill="url(#paint2_linear_101_66)"/>
<path d="M1657.58 255.786H1614.24L1555.42 128.277H1543.04L1552.32 143.64V255.786H1527.56V105.234H1571.21L1629.72 232.742H1642.1L1632.82 217.38V105.234H1657.58V255.786Z" fill="url(#paint3_linear_101_66)"/>
<path d="M1821.54 256.093H1713.19V148.556L1734.86 127.048H1713.19V105.541H1821.54V127.048H1737.96V188.498L1756.53 170.063H1821.54V191.571H1737.96V234.586H1821.54V256.093Z" fill="url(#paint4_linear_101_66)"/>
<rect x="879.591" y="161.162" width="113.329" height="39.0027" rx="19.5014" fill="url(#paint5_linear_101_66)"/>
<path fill-rule="evenodd" clip-rule="evenodd" d="M8.07689 94.6886C9.99443 96.4551 9.99443 99.4278 8.07689 101.286C7.6437 101.727 7.12296 102.078 6.54618 102.317C5.9694 102.557 5.34856 102.68 4.7212 102.68C4.09385 102.68 3.473 102.557 2.89622 102.317C2.31944 102.078 1.79871 101.727 1.36551 101.286C-0.455171 99.4278 -0.455171 96.4542 1.36551 94.6886C1.79871 94.2481 2.31944 93.8974 2.89622 93.6578C3.473 93.4183 4.09385 93.2947 4.7212 93.2947C5.34856 93.2947 5.9694 93.4183 6.54618 93.6578C7.12296 93.8974 7.6437 94.2481 8.07689 94.6886ZM8.65216 114.018V155.463C8.65216 157.693 7.02225 159.366 4.7212 159.366C2.70779 159.366 0.886128 157.693 0.886128 155.463V114.018C0.886128 111.881 2.51604 110.114 4.7212 110.114C6.92637 110.114 8.65216 111.881 8.65216 114.018ZM68.1917 128.421V155.463C68.1917 157.693 66.6577 159.366 64.3566 159.366C62.1515 159.366 60.4257 157.693 60.4257 155.463V128.793C60.4257 120.708 54.9607 116.619 47.5782 116.619C42.3049 116.619 37.8946 117.641 34.3472 119.686V155.463C34.3472 157.693 32.7173 159.366 30.5121 159.366C28.3069 159.366 26.5811 157.693 26.5811 155.463V117.827C26.5811 116.433 27.1564 115.318 28.3069 114.482C31.7585 111.973 38.9493 109.464 47.7699 109.464C61.0968 109.464 68.1917 116.155 68.1917 128.421ZM109.131 158.25C106.351 159.272 102.995 159.83 99.2558 159.83C89.3805 159.83 84.4908 153.697 84.4908 144.497V104.074C84.4908 101.937 86.1207 100.265 88.3259 100.265C90.531 100.265 92.2568 101.937 92.2568 104.074V111.694H106.734C108.652 111.694 110.378 113.274 110.378 115.132C110.378 116.992 108.652 118.57 106.734 118.57H92.2568V144.777C92.2568 149.702 94.6537 152.862 99.6393 152.862C100.79 152.862 103.379 152.304 107.309 151.189C110.378 150.445 112.295 152.118 112.295 154.627C112.295 156.394 111.24 157.6 109.131 158.25ZM164.644 129.629V132.417C164.644 136.041 162.726 137.806 158.987 137.806H130.32V139.293C130.32 147.843 136.073 152.954 144.606 152.954C147.77 152.954 151.605 152.118 156.303 150.538C159.467 149.329 161.863 151.188 161.863 153.511C161.863 154.905 161.192 156.02 159.754 156.856C156.686 158.623 150.166 159.83 144.51 159.83C131.47 159.83 123.417 152.024 122.746 139.851C122.458 135.483 122.554 131.767 122.842 128.7C123.896 116.805 132.237 109.464 144.03 109.464C150.262 109.464 155.248 111.322 158.987 115.133C162.726 118.849 164.644 123.682 164.644 129.629ZM130.32 131.488H155.823C156.59 131.488 156.974 131.116 157.07 130.373C157.549 121.916 152.468 116.248 144.126 116.248C134.922 116.248 130.032 122.102 130.32 131.488ZM186.791 96.8265V155.463C186.791 157.693 185.162 159.366 182.861 159.366C180.655 159.366 179.025 157.693 179.025 155.463V96.8246C179.025 94.6876 180.655 93.0151 182.861 93.0151C185.066 93.0151 186.791 94.6886 186.791 96.8265ZM212.007 94.6895C213.925 96.4542 213.925 99.4288 212.007 101.286C211.574 101.727 211.053 102.078 210.476 102.317C209.9 102.557 209.279 102.68 208.651 102.68C208.024 102.68 207.403 102.557 206.826 102.317C206.25 102.078 205.729 101.727 205.296 101.286C203.474 99.4278 203.474 96.4542 205.296 94.6886C205.729 94.2481 206.25 93.8974 206.826 93.6578C207.403 93.4183 208.024 93.2947 208.651 93.2947C209.279 93.2947 209.9 93.4183 210.476 93.6578C211.053 93.8974 211.574 94.249 212.007 94.6895ZM212.582 114.017V155.463C212.582 157.693 210.952 159.366 208.651 159.366C206.638 159.366 204.816 157.693 204.816 155.463V114.018C204.816 111.881 206.446 110.114 208.651 110.114C210.857 110.114 212.582 111.88 212.582 114.017ZM270.875 118.478V154.719C270.875 168.472 262.247 176.279 249.303 176.279C243.551 176.279 238.469 174.977 234.155 172.375C231.949 170.981 230.799 169.681 230.799 168.38C230.799 166.613 232.045 164.848 234.442 164.848C235.497 164.848 236.839 165.313 238.565 166.335C242.112 168.286 245.756 169.308 249.303 169.308C256.973 169.308 263.109 164.476 263.109 156.299V155.37C258.507 157.507 253.809 158.529 249.016 158.529C237.223 158.529 229.936 151.466 229.169 140.037C228.881 136.139 228.881 132.226 229.169 128.328C229.936 116.898 237.51 109.464 250.07 109.464C253.905 109.464 257.644 110.114 261.288 111.322C264.931 112.531 267.616 113.646 269.246 114.761C270.3 115.596 270.875 116.805 270.875 118.478ZM250.358 116.619C242.208 116.619 237.702 120.708 236.935 128.793C236.647 131.952 236.647 135.576 236.935 139.573C237.51 147.564 241.825 151.559 249.783 151.559C255.631 151.559 261.096 149.516 263.109 147.75V119.965C263.109 119.686 257.261 116.712 250.358 116.619ZM328.593 129.629V132.417C328.593 136.041 326.676 137.806 322.937 137.806H294.269V139.293C294.269 147.843 300.022 152.954 308.555 152.954C311.719 152.954 315.554 152.118 320.252 150.538C323.416 149.329 325.813 151.188 325.813 153.511C325.813 154.905 325.142 156.02 323.704 156.856C320.636 158.623 314.116 159.83 308.459 159.83C295.42 159.83 287.366 152.024 286.695 139.851C286.408 135.483 286.503 131.767 286.791 128.7C287.846 116.805 296.187 109.464 307.98 109.464C314.212 109.464 319.197 111.322 322.937 115.133C326.676 118.849 328.593 123.682 328.593 129.629ZM294.269 131.488H319.773C320.54 131.488 320.923 131.116 321.019 130.373C321.498 121.916 316.417 116.248 308.076 116.248C298.872 116.248 293.982 122.102 294.269 131.488ZM384.49 128.421V155.463C384.49 157.693 382.956 159.366 380.655 159.366C378.449 159.366 376.724 157.693 376.724 155.463V128.793C376.724 120.708 371.259 116.619 363.876 116.619C358.603 116.619 354.193 117.641 350.645 119.686V155.463C350.645 157.693 349.015 159.366 346.81 159.366C344.605 159.366 342.879 157.693 342.879 155.463V117.827C342.879 116.433 343.454 115.318 344.605 114.482C348.056 111.973 355.247 109.464 364.068 109.464C377.395 109.464 384.49 116.155 384.49 128.421ZM425.429 158.25C422.649 159.272 419.293 159.83 415.554 159.83C405.678 159.83 400.789 153.697 400.789 144.497V104.074C400.789 101.937 402.419 100.265 404.624 100.265C406.829 100.265 408.555 101.937 408.555 104.074V111.694H423.032C424.95 111.694 426.675 113.274 426.675 115.132C426.675 116.992 424.95 118.57 423.032 118.57H408.555V144.777C408.555 149.702 410.952 152.862 415.937 152.862C417.088 152.862 419.676 152.304 423.607 151.189C426.675 150.445 428.593 152.118 428.593 154.627C428.593 156.394 427.538 157.6 425.429 158.25ZM481.996 128.421V155.463C481.996 157.693 480.462 159.366 478.161 159.366C475.956 159.366 474.23 157.693 474.23 155.463V128.793C474.23 120.708 468.765 116.619 461.383 116.619C456.11 116.619 451.699 117.641 448.152 119.686V155.463C448.152 157.693 446.522 159.366 444.317 159.366C442.112 159.366 440.386 157.693 440.386 155.463V117.827C440.386 116.433 440.961 115.318 442.112 114.482C445.563 111.973 452.754 109.464 461.575 109.464C474.902 109.464 481.996 116.155 481.996 128.421ZM511.718 155.927L493.502 115.597C492.351 112.902 494.173 110.207 497.145 110.207C498.679 110.207 499.925 111.136 500.788 112.902L515.649 146.077C515.937 146.542 516.129 146.542 516.416 146.077L529.935 113.181C530.702 111.229 531.948 110.207 533.77 110.207C536.742 110.207 538.564 112.995 537.413 115.597L519.388 157.971C515.841 166.242 510.376 173.119 506.062 175.627C504.815 176.371 503.665 176.743 502.61 176.743C500.597 176.743 498.775 175.349 498.775 173.212C498.775 171.725 499.35 170.61 500.597 169.959C505.678 167.078 509.417 162.432 511.718 155.927ZM311.144 247.274L301.652 211.683C301.556 211.404 301.46 211.311 301.173 211.311C300.885 211.311 300.693 211.404 300.693 211.683L290.914 247.181C289.859 251.084 287.558 253.035 284.011 253.035C280.559 253.035 277.875 250.991 276.82 247.274L265.698 208.245C264.931 205.364 266.561 202.855 269.246 202.855C271.067 202.855 272.314 203.784 272.793 205.55L283.627 244.765C283.819 245.415 284.394 245.415 284.586 244.765L294.269 208.337C295.132 204.992 298.009 202.855 301.173 202.855C304.528 202.855 307.213 204.992 308.076 208.43L317.759 244.765C317.951 245.415 318.526 245.415 318.718 244.765L329.169 205.829C329.552 203.877 330.799 202.855 333.004 202.855C335.688 202.855 337.318 205.55 336.551 208.245L325.334 247.274C324.183 251.084 321.786 253.035 318.239 253.035C314.5 253.035 312.103 251.084 311.144 247.274ZM361.096 248.854L342.879 208.523C341.729 205.829 343.55 203.134 346.522 203.134C348.056 203.134 349.303 204.063 350.166 205.829L365.027 239.004C365.314 239.468 365.506 239.468 365.794 239.004L379.312 206.107C380.079 204.156 381.326 203.135 383.147 203.135C386.12 203.135 387.941 205.922 386.791 208.523L368.766 250.898C365.218 259.169 359.753 266.045 355.439 268.554C354.193 269.298 353.042 269.669 351.987 269.669C349.974 269.669 348.152 268.275 348.152 266.138C348.152 264.651 348.728 263.536 349.974 262.885C355.055 260.004 358.795 255.358 361.096 248.854ZM439.044 220.789C439.427 225.18 439.427 229.594 439.044 233.985C437.989 245.601 430.415 252.757 417.855 252.757C414.116 252.757 410.472 252.106 406.925 250.898C403.377 249.69 400.693 248.389 398.871 247.181C397.817 246.53 397.337 245.509 397.337 244.114V189.753C397.337 187.616 398.967 185.849 401.172 185.849C403.377 185.849 405.103 187.616 405.103 189.753V205.364C409.705 203.413 414.307 202.391 418.909 202.391C430.894 202.391 437.989 209.174 439.044 220.789ZM431.182 233.428C431.469 229.897 431.469 225.901 431.182 221.347C430.702 213.449 426.484 209.453 418.622 209.453C413.444 209.453 408.938 210.568 405.103 212.705V241.884C406.254 242.72 408.075 243.65 410.664 244.487C413.253 245.322 415.554 245.694 417.759 245.694C425.908 245.694 430.415 241.605 431.182 233.428ZM496.282 220.789C496.57 225.25 496.57 229.618 496.282 233.985C495.995 239.468 493.789 243.929 489.762 247.459C485.832 250.991 480.846 252.757 474.902 252.757C469.053 252.757 464.067 250.99 460.041 247.459C456.014 243.928 453.809 239.468 453.521 233.985C453.233 229.591 453.233 225.184 453.521 220.789C453.809 215.401 456.014 211.033 459.945 207.595C463.972 204.156 468.957 202.39 474.902 202.39C480.846 202.39 485.832 204.063 489.762 207.501C493.789 210.94 495.995 215.307 496.282 220.789ZM461.287 221.348C460.999 225.401 460.999 229.468 461.287 233.521C461.958 240.862 467.231 245.694 474.902 245.694C482.572 245.694 487.845 240.862 488.516 233.521C488.804 229.468 488.804 225.401 488.516 221.348C488.037 214.285 482.859 209.453 474.902 209.453C466.944 209.453 461.766 214.285 461.287 221.348ZM466.656 191.239L479.695 184.734C480.367 184.456 480.846 184.363 481.325 184.363C481.754 184.359 482.179 184.438 482.576 184.596C482.973 184.753 483.334 184.985 483.637 185.28C483.941 185.574 484.181 185.923 484.344 186.309C484.506 186.694 484.588 187.106 484.585 187.523C484.585 188.731 484.01 189.66 482.763 190.31L469.82 196.815C469.341 197.093 468.765 197.28 468.094 197.28C466.273 197.28 464.93 195.885 464.93 194.12C464.93 192.818 465.506 191.89 466.656 191.239ZM535.016 203.413C537.03 203.877 538.084 205.084 538.084 206.944C538.084 208.71 536.646 210.382 534.249 210.382C533.77 210.382 532.619 210.289 530.99 210.011C529.565 209.764 528.122 209.64 526.675 209.638C521.498 209.732 518.909 212.519 518.909 218.002V248.482C518.909 250.619 517.183 252.292 514.978 252.292C512.773 252.292 511.047 250.62 511.047 248.482V217.166C511.047 207.966 516.704 202.39 526.675 202.39C530.031 202.39 532.811 202.762 535.016 203.413Z" fill="black"/>
<defs>
<linearGradient id="paint0_linear_101_66" x1="1214.41" y1="142.969" x2="1596.57" y2="141.36" gradientUnits="userSpaceOnUse">
<stop stop-color="#FA0064"/>
<stop offset="1" stop-color="#BE0064"/>
</linearGradient>
<linearGradient id="paint1_linear_101_66" x1="1214.41" y1="142.969" x2="1596.57" y2="141.36" gradientUnits="userSpaceOnUse">
<stop stop-color="#FA0064"/>
<stop offset="1" stop-color="#BE0064"/>
</linearGradient>
<linearGradient id="paint2_linear_101_66" x1="1214.41" y1="142.969" x2="1596.57" y2="141.36" gradientUnits="userSpaceOnUse">
<stop stop-color="#FA0064"/>
<stop offset="1" stop-color="#BE0064"/>
</linearGradient>
<linearGradient id="paint3_linear_101_66" x1="1214.41" y1="142.969" x2="1596.57" y2="141.36" gradientUnits="userSpaceOnUse">
<stop stop-color="#FA0064"/>
<stop offset="1" stop-color="#BE0064"/>
</linearGradient>
<linearGradient id="paint4_linear_101_66" x1="1214.41" y1="142.969" x2="1596.57" y2="141.36" gradientUnits="userSpaceOnUse">
<stop stop-color="#FA0064"/>
<stop offset="1" stop-color="#BE0064"/>
</linearGradient>
<linearGradient id="paint5_linear_101_66" x1="879.591" y1="181.191" x2="992.92" y2="181.191" gradientUnits="userSpaceOnUse">
<stop stop-color="#C382FA"/>
<stop offset="1" stop-color="#8250FA"/>
</linearGradient>
</defs>
</svg>
