<svg width="1357" height="445" viewBox="0 0 1357 445" fill="none" xmlns="http://www.w3.org/2000/svg">
<path fill-rule="evenodd" clip-rule="evenodd" d="M203.251 243.047L63.8237 103.62C52.3156 92.1114 52.3156 73.894 63.8237 62.386L64.583 61.6159C76.0921 50.1078 94.3192 50.1078 105.817 61.6159L245.255 201.043C256.763 212.551 256.763 230.769 245.255 242.277L244.485 243.047C232.977 254.555 214.759 254.555 203.251 243.047Z" fill="#0FD2FF"/>
<path fill-rule="evenodd" clip-rule="evenodd" d="M342.336 382.132L202.909 242.705C191.401 231.197 191.401 212.979 202.909 201.471L203.679 200.701C215.187 189.193 233.404 189.193 244.912 200.701L384.34 340.139C395.848 351.637 395.848 369.854 384.34 381.362L383.57 382.132C372.062 393.64 353.844 393.64 342.336 382.132Z" fill="#C382FA"/>
<path fill-rule="evenodd" clip-rule="evenodd" d="M203.927 243.773L113.875 153.721C102.354 142.199 102.354 123.96 113.875 112.439L114.636 111.667C126.157 100.146 144.406 100.146 155.918 111.667L245.981 201.719C257.502 213.241 257.502 231.48 245.981 243.001L245.209 243.773C233.688 255.294 215.449 255.294 203.927 243.773Z" fill="#0082FA"/>
<path fill-rule="evenodd" clip-rule="evenodd" d="M288.243 328.288L202.979 243.081C191.377 231.489 191.377 213.135 202.979 201.541L203.756 200.766C215.358 189.171 233.722 189.171 245.325 200.766L329.812 285.195C341.415 296.789 341.415 315.152 329.812 326.737L329.036 327.512C317.637 339.105 299.07 339.105 288.243 328.288Z" fill="#8250FA"/>
<path fill-rule="evenodd" clip-rule="evenodd" d="M342.458 62.3636L64.5705 340.063C53.0478 351.587 53.0478 369.828 64.5705 381.352L65.3433 382.113C76.8661 393.646 95.1083 393.646 106.631 382.113L384.328 104.423C395.852 92.9003 395.852 74.6581 384.328 63.1343L383.557 62.3636C372.223 50.8397 353.982 50.8397 342.458 62.3636Z" fill="#FA0064"/>
<path fill-rule="evenodd" clip-rule="evenodd" d="M281.99 122.138L102.09 302.481C90.5822 314.017 90.5822 332.28 102.09 343.815L102.85 344.588C114.359 356.114 132.576 356.114 144.085 344.588L323.996 164.244C335.504 152.708 335.504 134.446 323.996 122.91L323.226 122.138C311.718 111.373 292.919 111.373 281.99 122.138Z" fill="#BE0064"/>
<path d="M640.005 287.571C640.005 293.511 637.838 298.632 633.504 302.933C629.376 307.03 624.319 309.078 618.334 309.078H531.65C525.665 309.078 520.505 307.03 516.171 302.933C512.043 298.632 509.979 293.511 509.979 287.571V180.033C509.979 174.093 512.043 169.075 516.171 164.978C520.505 160.677 525.665 158.526 531.65 158.526H618.334C624.319 158.526 629.376 160.677 633.504 164.978C637.838 169.075 640.005 174.093 640.005 180.033V201.541H615.238V180.033H534.746V287.571H615.238V266.063H640.005V287.571Z" fill="url(#paint0_linear_101_55)"/>
<path d="M794.931 309.078H686.576V158.526H711.343V287.571H770.164V266.063H794.931V309.078Z" fill="url(#paint1_linear_101_55)"/>
<path d="M954.428 287.571C954.428 293.511 952.261 298.632 947.927 302.933C943.799 307.03 938.743 309.078 932.757 309.078H846.073C840.088 309.078 834.928 307.03 830.594 302.933C826.466 298.632 824.402 293.511 824.402 287.571V180.033C824.402 174.093 826.466 169.075 830.594 164.978C834.928 160.677 840.088 158.526 846.073 158.526H932.757C938.743 158.526 943.799 160.677 947.927 164.978C952.261 169.075 954.428 174.093 954.428 180.033V287.571ZM929.662 287.571V180.033H849.169V287.571H929.662Z" fill="url(#paint2_linear_101_55)"/>
<path d="M1138.58 308.771H1095.24L1036.42 181.262H1024.04L1033.32 196.625V308.771H1008.56V158.219H1052.21L1110.72 285.727H1123.1L1113.82 270.365V158.219H1138.58V308.771Z" fill="url(#paint3_linear_101_55)"/>
<path d="M1302.54 309.078H1194.19V201.541L1215.86 180.033H1194.19V158.526H1302.54V180.033H1218.96V241.483L1237.53 223.048H1302.54V244.556H1218.96V287.571H1302.54V309.078Z" fill="url(#paint4_linear_101_55)"/>
<rect x="360.591" y="214.147" width="113.329" height="39.0027" rx="19.5014" fill="url(#paint5_linear_101_55)"/>
<defs>
<linearGradient id="paint0_linear_101_55" x1="695.405" y1="195.954" x2="1077.57" y2="194.345" gradientUnits="userSpaceOnUse">
<stop stop-color="#FA0064"/>
<stop offset="1" stop-color="#BE0064"/>
</linearGradient>
<linearGradient id="paint1_linear_101_55" x1="695.405" y1="195.954" x2="1077.57" y2="194.345" gradientUnits="userSpaceOnUse">
<stop stop-color="#FA0064"/>
<stop offset="1" stop-color="#BE0064"/>
</linearGradient>
<linearGradient id="paint2_linear_101_55" x1="695.405" y1="195.954" x2="1077.57" y2="194.345" gradientUnits="userSpaceOnUse">
<stop stop-color="#FA0064"/>
<stop offset="1" stop-color="#BE0064"/>
</linearGradient>
<linearGradient id="paint3_linear_101_55" x1="695.405" y1="195.954" x2="1077.57" y2="194.345" gradientUnits="userSpaceOnUse">
<stop stop-color="#FA0064"/>
<stop offset="1" stop-color="#BE0064"/>
</linearGradient>
<linearGradient id="paint4_linear_101_55" x1="695.405" y1="195.954" x2="1077.57" y2="194.345" gradientUnits="userSpaceOnUse">
<stop stop-color="#FA0064"/>
<stop offset="1" stop-color="#BE0064"/>
</linearGradient>
<linearGradient id="paint5_linear_101_55" x1="360.591" y1="234.175" x2="473.92" y2="234.175" gradientUnits="userSpaceOnUse">
<stop stop-color="#C382FA"/>
<stop offset="1" stop-color="#8250FA"/>
</linearGradient>
</defs>
</svg>
